<?xml version="1.0" encoding="UTF-8"?>
<svg width="50px" height="50px" viewBox="0 0 50 50" version="1.1" xmlns="http://www.w3.org/2000/svg" xmlns:xlink="http://www.w3.org/1999/xlink">
    <title>Facebook-icon-white in blue circle</title>
    <defs>
        <polygon id="path-1" points="0.005859375 0 50 0 50 50 0.005859375 50"></polygon>
    </defs>
    <g id="Page-1" stroke="none" stroke-width="1" fill="none" fill-rule="evenodd">
        <g id="PT-sign-in/sign-up-screen-1" transform="translate(-50.000000, -616.000000)">
            <g id="Facebook-icon-white-in-blue-circle" transform="translate(50.000000, 616.000000)">
                <g id="Group-3">
                    <mask id="mask-2" fill="white">
                        <use xlink:href="#path-1"></use>
                    </mask>
                    <g id="Clip-2"></g>
                    <path d="M50,25 C50,38.8071289 38.8071289,50 25,50 C11.1928711,50 0,38.8071289 0,25 C0,11.1928711 11.1928711,0 25,0 C38.8071289,0 50,11.1928711 50,25" id="Fill-1" fill="#3A4E86" mask="url(#mask-2)"></path>
                </g>
                <path d="M17.4789108,26.44542 L20.7339209,26.44542 L20.7339209,39.5323874 C20.7339209,39.7906905 20.9482433,40 21.2128316,40 L26.7317836,40 C26.9963719,40 27.2107933,39.7906905 27.2107933,39.5323874 L27.2107933,26.5071693 L30.9526301,26.5071693 C31.1959444,26.5071693 31.4007678,26.3287826 31.4284734,26.0927055 L31.9967347,21.2748175 C32.0123686,21.1422354 31.9694249,21.0094601 31.8785902,20.9101203 C31.7876565,20.8104905 31.6575392,20.753573 31.5210892,20.753573 L27.2109912,20.753573 L27.2109912,17.7334664 C27.2109912,16.8230762 27.712858,16.3613583 28.7029368,16.3613583 C28.8441363,16.3613583 31.5210892,16.3613583 31.5210892,16.3613583 C31.7856775,16.3613583 32,16.1518555 32,15.8936491 L32,11.471188 C32,11.212885 31.7856775,11.0034788 31.5210892,11.0034788 L27.6372614,11.0034788 C27.6099516,11.002126 27.5490982,11 27.4594509,11 C26.7855126,11 24.4432036,11.1291998 22.5929654,12.7915002 C20.5428513,14.6337333 20.8279219,16.8394074 20.8959985,17.2218853 L20.8959985,20.7534763 L17.4789108,20.7534763 C17.2143225,20.7534763 17,20.9628825 17,21.2211855 L17,25.9776142 C17,26.2360139 17.2143225,26.44542 17.4789108,26.44542" id="Fill-4" fill="#FFFFFE"></path>
            </g>
        </g>
    </g>
</svg>