<?xml version="1.0" encoding="UTF-8"?>
<svg width="50px" height="50px" viewBox="0 0 50 50" version="1.1" xmlns="http://www.w3.org/2000/svg" xmlns:xlink="http://www.w3.org/1999/xlink">
    <title>Google-icon-white in red circle</title>
    <defs>
        <polygon id="path-1" points="0.005859375 0 50 0 50 50 0.005859375 50"></polygon>
    </defs>
    <g id="Page-1" stroke="none" stroke-width="1" fill="none" fill-rule="evenodd">
        <g id="PT-sign-in/sign-up-screen-1" transform="translate(-260.000000, -616.000000)">
            <g id="Google-icon-white-in-red-circle" transform="translate(260.000000, 616.000000)">
                <g id="Group-3">
                    <mask id="mask-2" fill="white">
                        <use xlink:href="#path-1"></use>
                    </mask>
                    <g id="Clip-2"></g>
                    <path d="M50,25 C50,38.8071289 38.8071289,50 25,50 C11.1928711,50 0,38.8071289 0,25 C0,11.1928711 11.1928711,0 25,0 C38.8071289,0 50,11.1928711 50,25" id="Fill-1" fill="#D9252A" mask="url(#mask-2)"></path>
                </g>
                <path d="M34.4071216,24 L41,25.2857423 L37.1250246,25.2857423 L37.1250246,29.1428712 L34.541642,29.1428712 L34.541642,25.2857423 L30.6666667,25.2857423 L30.6666667,22.7142577 L34.541642,22.7142577 L34.541642,18.8571288 L37.1250246,18.8571288 L37.1250246,22.7142577 L41,22.7142577 L41,25.2857423 L34.4071216,24 Z M19.041642,22.7142577 L19.041642,25.7999608 L24.1695787,25.7999608 C23.9629199,27.1229795 22.6195885,29.6828888 19.041642,29.6828888 C15.9545718,29.6828888 13.4358378,27.1384786 13.4358378,24 C13.4358378,20.8627966 15.9545718,18.3171112 19.041642,18.3171112 C20.7983895,18.3171112 21.9737921,19.0628358 22.6454085,19.705756 L25.0995924,17.352829 C23.5237823,15.8870808 21.4829159,15 19.041642,15 C14.0429041,15 10,19.0242842 10,24 C10,28.9757158 14.0429041,33 19.041642,33 C24.2599488,33 27.7229862,29.3485782 27.7229862,24.205707 C27.7229862,23.6142871 27.657155,23.1642234 27.5795964,22.7142577 L19.041642,22.7142577 L19.041642,22.7142577 Z" id="Fill-4" fill="#FFFFFE"></path>
            </g>
        </g>
    </g>
</svg>