<?xml version="1.0" encoding="UTF-8"?>
<svg width="50px" height="50px" viewBox="0 0 50 50" version="1.1" xmlns="http://www.w3.org/2000/svg" xmlns:xlink="http://www.w3.org/1999/xlink">
    <title>Instagram-icon-white in black circle</title>
    <defs>
        <polygon id="path-1" points="0.005859375 0 50 0 50 50 0.005859375 50"></polygon>
        <polygon id="path-3" points="0.0907436709 0.0907436709 30.9092563 0.0907436709 30.9092563 30.9092563 0.0907436709 30.9092563"></polygon>
    </defs>
    <g id="Page-1" stroke="none" stroke-width="1" fill="none" fill-rule="evenodd">
        <g id="PT-sign-in/sign-up-screen-1" transform="translate(-155.000000, -616.000000)">
            <g id="Instagram-icon-white-in-black-circle" transform="translate(155.000000, 616.000000)">
                <g id="Group-3">
                    <mask id="mask-2" fill="white">
                        <use xlink:href="#path-1"></use>
                    </mask>
                    <g id="Clip-2"></g>
                    <path d="M50,25 C50,38.8071289 38.8071289,50 25,50 C11.1928711,50 0,38.8071289 0,25 C0,11.1928711 11.1928711,0 25,0 C38.8071289,0 50,11.1928711 50,25" id="Fill-1" fill="#1A1919" mask="url(#mask-2)"></path>
                </g>
                <g id="Group-6" transform="translate(10.000000, 10.000000)">
                    <mask id="mask-4" fill="white">
                        <use xlink:href="#path-3"></use>
                    </mask>
                    <g id="Clip-5"></g>
                    <path d="M15.5000981,0.0905474684 C11.3150981,0.0905474684 10.7903544,0.108205696 9.14686392,0.183253165 C7.50661076,0.258202532 6.38649051,0.518661392 5.40645886,0.899588608 C4.39307278,1.29336709 3.5337057,1.82026899 2.67708544,2.67688924 C1.82046519,3.53360759 1.29356329,4.39297468 0.89978481,5.40616456 C0.518759494,6.38649051 0.258300633,7.50661076 0.183547468,9.14676582 C0.1085,10.7902563 0.0907436709,11.3149019 0.0907436709,15.4999019 C0.0907436709,19.6849019 0.1085,20.2095475 0.183547468,21.8531361 C0.258300633,23.4932911 0.518759494,24.6134114 0.89978481,25.5937373 C1.29356329,26.6069272 1.82046519,27.4662943 2.67708544,28.3230127 C3.5337057,29.1796329 4.39307278,29.7065348 5.40645886,30.1003133 C6.38649051,30.4812405 7.50661076,30.7416013 9.14686392,30.8165506 C10.7903544,30.8915981 11.3150981,30.9092563 15.5000981,30.9092563 C19.685,30.9092563 20.2098418,30.8915981 21.8533323,30.8165506 C23.4934873,30.7416013 24.6136076,30.4812405 25.5937373,30.1003133 C26.6071234,29.7065348 27.4663924,29.1796329 28.3231108,28.3230127 C29.179731,27.4662943 29.7066329,26.6069272 30.1004114,25.5937373 C30.4814367,24.6134114 30.7417975,23.4932911 30.8166487,21.8531361 C30.8916962,20.2095475 30.9093544,19.6849019 30.9093544,15.4999019 C30.9093544,11.3149019 30.8916962,10.7902563 30.8166487,9.14676582 C30.7417975,7.50661076 30.4814367,6.38649051 30.1004114,5.40616456 C29.7066329,4.39297468 29.179731,3.53360759 28.3231108,2.67688924 C27.4663924,1.82026899 26.6071234,1.29336709 25.5937373,0.899588608 C24.6136076,0.518661392 23.4934873,0.258202532 21.8533323,0.183253165 C20.2098418,0.108205696 19.685,0.0905474684 15.5000981,0.0905474684 M15.5000981,2.86700949 C19.6144652,2.86700949 20.1018323,2.8827057 21.7267816,2.95677215 C23.2291044,3.02534494 24.0450127,3.27638608 24.5881013,3.4874019 C25.3073797,3.76699051 25.8206456,4.10092722 26.3598101,4.64009177 C26.8990728,5.17935443 27.2331076,5.69262025 27.5125,6.41189873 C27.7235158,6.95488924 27.974557,7.77079747 28.0431297,9.27321835 C28.1171962,10.8980696 28.1328924,11.3854367 28.1328924,15.4999019 C28.1328924,19.6143671 28.1171962,20.1017342 28.0431297,21.7265854 C27.974557,23.2290063 27.7235158,24.0450127 27.5125,24.5880032 C27.2331076,25.3071835 26.8990728,25.8204494 26.3598101,26.359712 C25.8206456,26.8988766 25.3073797,27.2329114 24.5881013,27.5124019 C24.0450127,27.7234177 23.2291044,27.9744589 21.7267816,28.0429335 C20.1020285,28.1170981 19.6148576,28.1326962 15.5000981,28.1326962 C11.3852405,28.1326962 10.8980696,28.1170981 9.27341456,28.0429335 C7.77109177,27.9744589 6.95508544,27.7234177 6.41209494,27.5124019 C5.69281646,27.2329114 5.17945253,26.8988766 4.64028797,26.359712 C4.10112342,25.8204494 3.76718671,25.3071835 3.4875981,24.5880032 C3.27668038,24.0450127 3.02554114,23.2290063 2.95706646,21.7265854 C2.8829019,20.1017342 2.8672057,19.6143671 2.8672057,15.4999019 C2.8672057,11.3854367 2.8829019,10.8980696 2.95706646,9.27321835 C3.02554114,7.77079747 3.27668038,6.95488924 3.4875981,6.41189873 C3.76718671,5.69262025 4.10112342,5.17935443 4.64028797,4.64009177 C5.17945253,4.10092722 5.69281646,3.76699051 6.41209494,3.4874019 C6.95508544,3.27638608 7.77109177,3.02534494 9.27341456,2.95677215 C10.8983639,2.8827057 11.3856329,2.86700949 15.5000981,2.86700949" id="Fill-4" fill="#FFFFFE" mask="url(#mask-4)"></path>
                </g>
                <path d="M25.0000496,30.1929581 C22.1320287,30.1929581 19.8070245,27.8680387 19.8070245,25 C19.8070245,22.1319613 22.1320287,19.8069427 25.0000496,19.8069427 C27.8680705,19.8069427 30.1929755,22.1319613 30.1929755,25 C30.1929755,27.8680387 27.8680705,30.1929581 25.0000496,30.1929581 M25.0000496,17 C20.5818275,17 17,20.5817506 17,25 C17,29.4183486 20.5818275,33 25.0000496,33 C29.4182716,33 33,29.4183486 33,25 C33,20.5817506 29.4182716,17 25.0000496,17" id="Fill-7" fill="#FFFFFE"></path>
                <path d="M35,17 C35,18.1044618 34.104674,19 33.0001061,19 C31.8954321,19 31,18.1044618 31,17 C31,15.895326 31.8954321,15 33.0001061,15 C34.104674,15 35,15.895326 35,17" id="Fill-8" fill="#FFFFFE"></path>
            </g>
        </g>
    </g>
</svg>