<?xml version="1.0" encoding="UTF-8"?>
<svg width="171px" height="171px" viewBox="0 0 171 171" version="1.1" xmlns="http://www.w3.org/2000/svg" xmlns:xlink="http://www.w3.org/1999/xlink">
    <title>Group</title>
    <g id="Page-1" stroke="none" stroke-width="1" fill="none" fill-rule="evenodd">
        <g id="PT-sign-in/sign-up-screen-1" transform="translate(-95.000000, -80.000000)" fill-rule="nonzero">
            <g id="Group" transform="translate(94.999962, 80.000000)">
                <circle id="Oval" fill="#00919F" transform="translate(85.870000, 85.870000) rotate(-76.920000) translate(-85.870000, -85.870000) " cx="85.87" cy="85.87" r="70.87"></circle>
                <path d="M35.2300378,85.4825969 L32.0000378,85.4825969 L32.0000378,80.8025969 L35.2000378,80.8025969 L35.2000378,67.1625969 L48.0000378,67.1625969 C54.0000378,67.1625969 57.6300378,71.0825969 57.6300378,76.3225969 C57.6300378,81.5625969 53.9300378,85.4825969 48.0000378,85.4825969 L40.1700378,85.4825969 L40.1700378,93.9225969 L35.2300378,93.9225969 L35.2300378,85.4825969 Z M40.1700378,80.8025969 L47.5800378,80.8025969 C51.0700378,80.8025969 52.6500378,78.7125969 52.6500378,76.3225969 C52.6500378,73.9325969 51.0700378,71.8525969 47.5800378,71.8525969 L40.1700378,71.8525969 L40.1700378,80.8025969 Z" id="Shape" fill="#FFFFFF"></path>
                <path d="M63.0000378,66.6125969 C64.3641811,66.6125969 65.4700378,67.7184536 65.4700378,69.0825969 C65.4700378,70.4467402 64.3641811,71.5525969 63.0000378,71.5525969 C61.6358944,71.5525969 60.5300378,70.4467402 60.5300378,69.0825969 C60.5355182,67.7207301 61.638171,66.6180773 63.0000378,66.6125969 L63.0000378,66.6125969 Z M60.7900378,73.3025969 L65.2200378,73.3025969 L65.2200378,93.9225969 L60.7900378,93.9225969 L60.7900378,73.3025969 Z" id="Shape" fill="#FFFFFF"></path>
                <path d="M86.6000378,91.4025969 L86.5200378,91.4025969 C84.8547885,93.4172437 82.3526673,94.5502101 79.7400378,94.4725969 C76.8709387,94.4866938 74.1177461,93.3414828 72.1050292,91.2967582 C70.0923122,89.2520336 68.9906789,86.4811165 69.0500378,83.6125969 C69.1209493,77.607719 73.9948014,72.769475 80.0000378,72.7425969 C82.561196,72.6112402 85.0200326,73.7619457 86.5600378,75.8125969 L86.6400378,75.8125969 L86.6400378,67.1625969 L91.0000378,67.1625969 L91.0000378,93.9225969 L86.6000378,93.9225969 L86.6000378,91.4025969 Z M80.3000378,90.3025969 C83.0170973,90.3554047 85.4961281,88.7593463 86.5726975,86.2641109 C87.6492669,83.7688756 87.1094339,80.8703283 85.206765,78.929954 C83.3040961,76.9895798 80.4166987,76.392979 77.9008206,77.4203828 C75.3849424,78.4477866 73.7405509,80.8950242 73.7400378,83.6125969 C73.7067315,87.2704388 76.6422465,90.2641272 80.3000378,90.3025969 Z" id="Shape" fill="#FFFFFF"></path>
                <path d="M116.000038,91.6225969 C116.000038,98.4325969 110.800038,102.352597 105.220038,102.352597 C101.859601,102.347955 98.675249,100.849221 96.5300378,98.2625969 L100.150038,95.6225969 C101.301616,97.1593454 103.081519,98.0988404 105.000038,98.1825969 C109.520038,98.1825969 111.820038,95.2425969 111.820038,92.0925969 L111.820038,90.7225969 C110.102541,92.80843 107.521177,93.9884818 104.820038,93.9225969 C99.4900378,93.9225969 94.8200378,89.9225969 94.8200378,83.4025969 C94.7030283,80.5725896 95.7634332,77.8205221 97.7491349,75.8007149 C99.7348365,73.7809077 102.468448,72.673794 105.300038,72.7425969 C107.803858,72.636652 110.202605,73.7558185 111.730038,75.7425969 L111.820038,75.7425969 L111.820038,73.3025969 L116.000038,73.3025969 L116.000038,91.6225969 Z M105.690038,89.7425969 C107.360986,89.7412612 108.959218,89.0589724 110.115972,87.8531563 C111.272725,86.6473401 111.888074,85.0221602 111.820038,83.3525969 C111.820038,79.9394771 109.053158,77.1725969 105.640038,77.1725969 C102.226918,77.1725969 99.4600378,79.9394771 99.4600378,83.3525969 C99.3881333,85.0404473 100.015983,86.6831507 101.195316,87.8927716 C102.374649,89.1023925 104.000907,89.771687 105.690038,89.7425969 L105.690038,89.7425969 Z" id="Shape" fill="#FFFFFF"></path>
                <path d="M140.190038,89.4425969 C137.92222,92.4782113 134.397178,94.3180034 130.610038,94.4425969 C123.410038,94.4425969 119.230038,89.0325969 119.230038,83.5825969 C119.230038,78.1325969 123.410038,72.7125969 130.610038,72.7125969 C134.910038,72.7125969 141.300038,76.2525969 141.300038,84.3025969 L141.300038,85.1125969 L124.170038,85.1125969 C124.582951,88.2628419 127.303684,90.5955148 130.480038,90.5225969 C132.881893,90.5065335 135.123488,89.3147523 136.480038,87.3325969 L140.190038,89.4425969 Z M136.100038,81.4425969 C135.432327,78.6203417 132.900082,76.6360579 130.000038,76.6625969 C127.137311,76.6269599 124.667916,78.6650564 124.160038,81.4825969 L136.100038,81.4425969 Z" id="Shape" fill="#FFFFFF"></path>
            </g>
        </g>
    </g>
</svg>